<svg width="273.457275" height="358.877441" viewBox="0 0 273.457 358.877" fill="none" xmlns="http://www.w3.org/2000/svg" xmlns:xlink="http://www.w3.org/1999/xlink">
	<desc>
			Created with Pixso.
	</desc>
	<defs/>
	<path id="Arrow" d="M3.58 98.09Q1.5 104.44 0 111.04L3.89 111.93Q5.36 105.51 7.39 99.34L3.58 98.09ZM20.38 63.69Q17.15 68.48 14.33 73.54L17.82 75.49Q20.55 70.6 23.66 65.97Q27.82 59.79 32.68 54.08L29.63 51.49Q24.65 57.35 20.38 63.69ZM51.07 31.07Q49.96 31.92 48.86 32.8L51.37 35.92Q52.32 35.16 53.28 34.41Q62.59 27.2 73.11 21.55L71.22 18.03Q60.54 23.77 51.07 31.07ZM109.79 3.63Q102.75 5.22 95.85 7.48L97.09 11.28Q103.82 9.08 110.69 7.53Q116.55 6.21 122.51 5.36L121.95 1.4Q115.81 2.27 109.79 3.63ZM174.77 3.34Q162 0.49 148.71 0L148.56 3.99Q161.67 4.48 174.26 7.32Q174.33 7.34 174.4 7.36L175.29 3.46Q175.03 3.4 174.77 3.34ZM216.2 20.05Q208.77 15.49 200.74 11.91L199.11 15.56Q206.95 19.06 214.2 23.52Q218.03 25.88 221.69 28.51L224.02 25.26Q220.2 22.51 216.2 20.05ZM166.19 180.89Q164.17 183.27 162.44 185.89L165.78 188.1Q167.24 185.89 168.92 183.86Q175.34 176.11 184.99 171.04L183.13 167.5Q173.03 172.81 166.19 180.89ZM162.72 225.85Q167.25 231.61 172.25 235.59L174.74 232.46Q170.1 228.77 165.87 223.38Q162 218.46 160.58 212.91Q160.48 212.53 160.39 212.15L156.49 213.02Q156.67 213.81 156.89 214.59Q158.57 220.57 162.72 225.85ZM252.74 53.33Q248.65 47.93 244.11 43.02L241.17 45.74Q245.58 50.5 249.56 55.74Q249.7 55.93 249.84 56.12Q253.56 61.07 256.59 66.54L260.09 64.59Q256.98 59 253.19 53.92Q252.97 53.62 252.74 53.33ZM220.23 163.36Q215.41 161.75 210.17 161.39L209.89 165.38Q214.78 165.72 219.25 167.25Q220.77 167.77 222.24 168.43Q229.06 171.47 234.96 175.72L237.29 172.47Q231.06 167.99 223.87 164.78Q222.08 163.98 220.23 163.36ZM197.88 244.13Q210.36 243.33 222.97 234.2L220.63 230.96Q208.95 239.41 197.62 240.13L197.88 244.13ZM273.45 115.76Q273.01 101.95 269.83 89.4L265.95 90.38Q269.02 102.51 269.45 115.89L273.45 115.76ZM182.3 350.77L192.72 355.02C193.75 355.44 194.24 356.59 193.81 357.62C193.39 358.66 192.24 359.14 191.21 358.72L176.39 352.68C175.35 352.25 174.87 351.11 175.3 350.07L181.34 335.25C181.76 334.22 182.91 333.74 183.95 334.16C184.98 334.58 185.47 335.73 185.04 336.77L180.85 347.03Q185.54 344.93 190.01 342.62L191.84 346.17Q187.18 348.58 182.3 350.77ZM265.88 168.18Q269.94 155.34 271.87 142.3L267.91 141.71Q266.03 154.44 262.07 166.98L265.88 168.18ZM241.84 215.39Q249.62 205.29 255.9 192.8L252.33 191Q246.22 203.15 238.67 212.95L241.84 215.39ZM260.29 199.77Q259.17 197.48 257.89 195.27L254.43 197.27Q255.51 199.16 256.49 201.1Q261.97 212.08 263.75 224.91L267.71 224.36Q265.88 211.14 260.29 199.77ZM217.56 329.99Q230.02 320.48 239.74 309.2L236.7 306.59Q227.26 317.55 215.13 326.81L217.56 329.99ZM256.81 283.86Q263.95 269.77 266.78 254.98L262.85 254.22Q260.13 268.46 253.24 282.05L256.81 283.86Z" fill="#FFCA10" fill-opacity="1.000000" fill-rule="evenodd"/>
</svg>
