<svg width="156.000000" height="60.000000" viewBox="0 0 156 60" fill="none" xmlns="http://www.w3.org/2000/svg" xmlns:xlink="http://www.w3.org/1999/xlink">
	<desc>
			Created with Pixso.
	</desc>
	<defs>
		<clipPath id="clip408_1259">
			<rect id="Logo" width="156.000000" height="60.000000" fill="white" fill-opacity="0"/>
		</clipPath>
	</defs>
	<rect id="Logo" width="156.000000" height="60.000000" fill="#FFFFFF" fill-opacity="0"/>
	<g clip-path="url(#clip408_1259)">
		<path id="Vector" d="M33.24 55.4C36.7 54.92 39.19 54.56 37.89 50.5C37.31 48.71 37.53 47.82 38.12 46.14C38.57 44.83 39.1 43.69 39.63 42.44C42.19 36.41 44.24 33.19 41.82 25.72C40.27 31.75 35.91 39.81 33.32 45.87C32.91 46.83 32.5 47.48 32.18 48.67C31.02 52.89 32.59 54.72 32.02 55.89C30.66 58.69 22.38 59.54 19.75 58.54C18.63 58.12 18.23 56.95 19.06 55.98C20.14 54.72 22.21 54.09 23.7 52.74C26.16 50.51 26.39 43.31 26.27 41.1C26.16 38.81 23.7 37.29 21.68 36.85C19.61 36.4 16.93 37.11 15.37 37.95C13.68 38.85 12.41 40.08 12.05 42.51C11.88 43.69 11.96 44.99 12.17 46.14C12.68 48.95 13.86 48.65 15.01 49.14C17.43 50.19 17.94 52.67 16.65 55.29C14.97 57.35 10.96 57.18 7.99 53.78C3.69 48.84 2.97 42.2 1.83 39.8C1.77 40.88 2.32 44.64 2.72 46.24C3.79 50.55 7.44 58.08 12.22 58.82C14.59 59.19 16.61 58.28 18.06 57.55C18.16 58.78 19.81 59.79 21.22 59.94C23.76 60.2 28.32 59.48 30.71 58.65C32.45 58.05 33.29 57.53 33.24 55.4ZM18.81 54.47C20.66 52.12 17.93 47.04 18.02 44.34C18.09 42.56 19 37.95 22.53 38.79C24.88 39.35 24.79 41.39 24.64 43.51C24.54 44.94 24.3 50.26 23.25 51.5C22.12 52.82 20.31 54.26 18.81 54.47Z" fill="#F3F6FA" fill-opacity="1.000000" fill-rule="evenodd"/>
		<path id="Vector" d="M5.85 37.46C6.31 37.18 6.72 36.91 7.09 36.57C7.41 36.28 7.83 35.82 8.12 35.59C8.73 35.09 10.99 35.59 11.63 35.94C12.07 36.19 12.6 36.56 13.03 36.04C13.28 35.74 13.62 35.05 13.7 34.65C13.01 33.99 11.49 33.98 10.38 33.93C11.27 33.1 15.47 31.82 17.07 31.75C17.73 32.17 19.86 34.16 20.9 33.89C21.2 33.1 20.18 32.22 20.65 31.43C21.49 30.82 24.12 31.1 25.06 31.55C27.37 32.67 27.78 33.1 28.3 31.88C29.94 32.23 30.79 33.22 31.4 34.56C31.67 35.15 32.89 37.06 33.43 37.53C33.76 37.81 33.43 37.68 33.86 37.75C34.35 36.89 33.84 34.79 33.93 33.69C34.01 32.84 35.79 31.11 36.53 30.21C36.89 29.59 37.08 28.65 36.34 28.59C35.5 28.7 34.63 29.12 33.77 29.31C32.42 29.46 31.4 29.9 30.35 29.02C29.36 28.2 28.25 27.58 27.15 26.91C26.66 26.61 24.91 25.82 24.65 25.51C25.82 24.53 26.56 24.02 27.31 22.36C27.97 20.86 28.25 19.06 27.98 17.24C27.59 14.51 26.11 12.51 24.29 10.75C24.13 10.59 24.1 10.56 23.92 10.37L23.57 10C24.61 8.98 26.62 7.45 26.59 5.32C26.57 4.53 26.3 3.74 25.57 3.7C24.91 4.13 25.1 4.61 23.81 4.95C22.24 5.37 19.88 4.44 20.52 7.5C20.71 8.39 21.28 8.88 21.83 9.27C23.75 10.67 25.88 13.33 26.82 16.4C28.03 20.34 25.26 23.01 23.3 24.41C22.87 24.71 22.78 24.75 22.23 24.5C18.46 22.82 21.23 24.4 18.84 20.35C18.13 19.14 17.79 19.12 17.46 18.58C18.21 18.35 18.49 17.75 18.59 16.79C17.89 16.86 17.35 16.98 17.06 17.53L16.8 18.05C16.79 18.07 16.77 18.1 16.75 18.12C15.07 17.38 13.82 17.88 13.11 19.22C12.59 18.59 12 17.81 10.92 18.39C11.1 19.67 11.86 20 12.96 19.67C12.7 21.51 12.7 22.57 12.65 24.45L11.13 25.13C10.75 24.87 9.9 24.07 9.57 23.76C9.03 23.26 8.6 22.8 8.13 22.24L6.82 20.68C6.41 20.12 6.09 19.55 5.67 18.86C4.8 20.13 2.69 27.44 2.52 29.37C2.83 28.78 4.84 22.48 5.88 21.3C6.72 22.68 7.38 23.75 8.4 24.94C8.73 25.32 9.21 25.56 9.42 26.05C6.92 27.68 5.33 28.98 3.08 31.29C2.49 32.01 1.95 32.51 1.33 33.47C0.91 34.12 0.28 35.24 0.09 36.16C-0.21 37.59 0.35 37.98 0.94 38.21C2.49 38.82 4.48 38.31 5.85 37.46ZM12.84 26.54C12.94 27.54 13.28 28.26 13.74 28.82C14.53 28.88 15.09 28.69 15.69 28.51C17.18 28.5 19.27 27.54 20.03 25.95C21.58 26.24 23.29 26.79 24.79 27.25C25.59 27.5 26.34 27.78 27.06 28.06C28.71 28.71 31.38 29.84 31.01 31.49C30.78 32.04 30.06 31.97 29.17 31.61C26.74 30.61 22.83 30.29 20.26 30.26C17.54 30.29 14.73 31.02 12.23 32.04C9.51 33.15 8.43 34.34 7.46 35.25C7.31 33.77 6.81 32.27 5.31 32.28C5.87 33.51 6.15 33.7 6.06 35.4C5.96 37.51 3.73 37.77 2.03 37.92C0.38 37.91 0.44 36.14 1.12 35.17C1.85 34.1 3.24 32.26 4.15 31.4C6.35 29.25 9.73 26.93 12.84 26.54ZM7.05 8.39C5.97 8.28 5.11 8.15 4.36 7.73C1.16 6.52 2.5 12.33 6.37 13.42C6.74 12.3 8.8 9.87 8.54 8.78L7.73 8.52C14.95 -3 29.29 0.71 35.2 9.61C40.29 17.27 40.66 24.47 37.79 32.62C39.04 31.53 40.47 28.17 41.04 26C43.46 16.85 36.47 3.96 27.55 1.11C22.66 -0.45 15.64 -0.73 11.38 2.61C9.16 4.34 8.16 6.02 7.05 8.39ZM3.35 34.33C3.94 33.45 2.63 33.21 2.27 33.89C1.74 34.87 2.91 35 3.35 34.33ZM13.26 25.97C13.48 25.56 14.03 25.14 14.98 24.92C16.2 24.59 16.86 25.32 17.18 26.15C18.04 25.32 18.73 23.81 18.38 22.09C18.1 20.71 17.11 19.2 16.18 18.71C14.66 17.91 13.67 19.03 13.48 20.42C13.28 21.88 13.11 24.47 13.26 25.97Z" fill="#F3F6FA" fill-opacity="1.000000" fill-rule="evenodd"/>
		<path id="Vector" d="M59.89 28.03C62.14 28.03 63.93 28.58 65.26 29.68C66.58 30.77 67.25 32.27 67.25 34.16C67.25 36.05 66.58 37.54 65.26 38.64C63.93 39.73 62.14 40.28 59.89 40.28L56.99 40.28L56.99 42.94C56.99 43.4 56.82 43.79 56.49 44.13C56.16 44.46 55.75 44.62 55.27 44.62L52.28 44.62L52.28 28.03L59.89 28.03ZM59.58 36.57C60.55 36.57 61.28 36.36 61.77 35.95C62.26 35.54 62.51 34.94 62.51 34.16C62.51 33.37 62.26 32.77 61.77 32.34C61.28 31.92 60.55 31.71 59.58 31.71L54 31.71L56.99 32.95L56.99 36.57L59.58 36.57Z" fill="#F3F6FA" fill-opacity="1.000000" fill-rule="nonzero"/>
		<path id="Vector" d="M85.67 44.62L85.67 28.03L90.37 28.03L90.37 44.62L85.67 44.62Z" fill="#F3F6FA" fill-opacity="1.000000" fill-rule="nonzero"/>
		<path id="Vector" d="M123.8 44.62L122.5 41.4L115.47 41.4L114.18 44.62L109.38 44.62L116.71 28.03L121.33 28.03L128.69 44.62L123.8 44.62ZM116.86 37.93L124.55 37.93L120.63 36.78L118.97 32.62L116.86 37.93Z" fill="#F3F6FA" fill-opacity="1.000000" fill-rule="nonzero"/>
		<path id="Vector" d="M104.9 44.28C104.14 44.51 103.3 44.62 102.37 44.62L93.78 44.62C93.78 39.07 93.78 33.52 93.78 27.96L107.37 27.96L107.37 30.45C107.37 30.98 107.19 31.44 106.82 31.8C106.46 32.17 106.02 32.35 105.5 32.35L98.6 32.35L98.6 33.93L102.37 33.93C103.3 33.93 104.14 34.04 104.9 34.28C105.67 34.51 106.35 34.87 106.92 35.34C107.51 35.82 107.95 36.4 108.24 37.07C108.54 37.73 108.68 38.46 108.68 39.28C108.68 40.09 108.54 40.83 108.24 41.49C107.95 42.15 107.51 42.73 106.92 43.21C106.35 43.69 105.67 44.04 104.9 44.28ZM103.47 38.33C103.19 38.1 102.75 37.98 102.14 37.98L98.6 37.98L98.6 39.27L96.1 40.61L99.19 40.59L102.14 40.59C102.46 40.59 102.74 40.56 102.97 40.5C103.17 40.44 103.33 40.35 103.46 40.24C103.58 40.14 103.67 40.02 103.73 39.87C103.8 39.7 103.83 39.51 103.83 39.28C103.83 39.05 103.8 38.85 103.73 38.69C103.68 38.55 103.58 38.42 103.47 38.33Z" fill="#F3F6FA" fill-opacity="1.000000" fill-rule="nonzero"/>
		<path id="Vector" d="M80.76 44.28C80.01 44.51 79.17 44.62 78.24 44.62L69.64 44.62C69.64 40.06 69.64 34.96 69.64 28.64L72.55 28.64C72.81 28.64 73.06 28.68 73.28 28.78C73.52 28.87 73.73 29.01 73.91 29.19C74.09 29.38 74.23 29.58 74.32 29.81C74.42 30.04 74.47 30.28 74.47 30.53L74.47 33.93L78.24 33.93C79.17 33.93 80.01 34.04 80.76 34.28C81.54 34.51 82.21 34.87 82.79 35.34C83.37 35.82 83.81 36.4 84.11 37.07C84.4 37.73 84.55 38.46 84.55 39.28C84.55 40.09 84.4 40.83 84.11 41.49C83.81 42.15 83.37 42.73 82.79 43.21C82.21 43.69 81.54 44.04 80.76 44.28ZM79.33 38.33C79.06 38.1 78.61 37.98 78 37.98L74.47 37.98L74.47 40.59L78 40.59C78.33 40.59 78.6 40.56 78.83 40.5C79.03 40.44 79.2 40.35 79.33 40.24C79.45 40.14 79.53 40.02 79.6 39.87C79.66 39.7 79.7 39.51 79.7 39.28C79.7 39.05 79.66 38.85 79.6 38.69C79.54 38.55 79.45 38.42 79.33 38.33Z" fill="#F3F6FA" fill-opacity="1.000000" fill-rule="nonzero"/>
		<path id="Vector" d="M142.92 22.68C150.13 22.68 155.99 28.53 155.99 35.75C155.99 42.97 150.13 48.82 142.92 48.82C135.69 48.82 129.84 42.97 129.84 35.75C129.84 28.53 135.69 22.68 142.92 22.68ZM150.34 36.78L150.34 29.67L145.24 29.67L141.14 36.78L141.14 39.86L146.79 39.86L146.79 41.84L150.34 41.84L150.34 39.86L151.82 39.86L151.82 36.78L150.34 36.78ZM144.46 36.78L146.79 32.75L146.79 35.53L149.29 36.78L146.79 36.78L146.79 36.78L144.46 36.78ZM136.33 29.67L132.12 33.88L134.33 36.08L136.33 34.08L136.33 41.84L139.88 41.84L139.88 29.67L136.33 29.67Z" fill="#F3F6FA" fill-opacity="1.000000" fill-rule="evenodd"/>
	</g>
</svg>
