<svg width="34.367188" height="28.670334" viewBox="0 0 34.3672 28.6703" fill="none" xmlns="http://www.w3.org/2000/svg" xmlns:xlink="http://www.w3.org/1999/xlink">
	<desc>
			Created with Pixso.
	</desc>
	<defs/>
	<path id="Vector" d="M1.03 12.32C1.08 12.07 1.19 11.84 1.35 11.64C1.5 11.44 1.7 11.28 1.93 11.17C2.16 11.06 2.41 11 2.66 11L31.7 11C31.95 11 32.2 11.06 32.43 11.17C32.65 11.28 32.85 11.44 33.01 11.64C33.16 11.84 33.27 12.07 33.33 12.32C33.38 12.57 33.37 12.82 33.31 13.07L30.3 25.14C30.12 25.86 29.7 26.5 29.12 26.96C28.53 27.42 27.81 27.67 27.07 27.67L7.29 27.67C6.55 27.67 5.83 27.42 5.24 26.96C4.66 26.5 4.24 25.86 4.06 25.14L1.05 13.07L1.05 13.07C0.98 12.82 0.98 12.57 1.03 12.32Z" stroke="#F3F6FA" stroke-opacity="1.000000" stroke-width="2.000000" stroke-linejoin="round"/>
	<path id="Vector" d="M12.18 17.67L12.18 21M22.17 17.67L22.17 21M7.19 11L13.85 1M27.17 11L20.51 1" stroke="#F3F6FA" stroke-opacity="1.000000" stroke-width="2.000000"/>
</svg>
