<svg width="44.000000" height="44.000000" viewBox="0 0 44 44" fill="none" xmlns="http://www.w3.org/2000/svg" xmlns:xlink="http://www.w3.org/1999/xlink">
	<desc>
			Created with Pixso.
	</desc>
	<defs>
		<clipPath id="clip408_1106">
			<rect id="simple-line-icons:social-vkontakte" width="44.000000" height="44.000000" fill="white" fill-opacity="0"/>
		</clipPath>
	</defs>
	<rect id="simple-line-icons:social-vkontakte" width="44.000000" height="44.000000" fill="#FFFFFF" fill-opacity="0"/>
	<g clip-path="url(#clip408_1106)">
		<path id="Vector" d="M0.12 10.65C0.12 9.02 1.24 8.37 2.62 8.29L9.02 8.33C9.41 8.33 9.75 8.59 9.88 8.98C11.34 13.7 13.14 16.62 15.29 19.93C15.42 20.19 15.64 20.32 15.85 20.32C16.02 20.32 16.19 20.23 16.32 20.02L16.45 19.55L16.5 12.11C16.5 11.04 15.98 10.87 14.78 10.69C14.3 10.61 14 10.18 14 9.75C14 9.66 14 9.58 14.05 9.49C14.65 7.64 16.54 6.7 19.2 6.7L21.61 6.66C23.58 6.66 25.39 7.51 25.39 10.05L25.39 19.8C25.56 19.93 25.73 20.02 25.95 20.02C26.29 20.02 26.72 19.8 27.07 19.25C29.3 16.11 31.83 12.37 32.18 10.39C32.18 10.31 32.22 10.26 32.26 10.18C32.74 9.23 33.94 8.59 34.46 8.42C34.54 8.37 34.67 8.33 34.84 8.33L41.5 8.33L41.93 8.37C42.58 8.37 43.05 8.8 43.26 9.19C43.65 9.79 43.57 10.44 43.61 10.69L43.61 11C42.96 14.91 38.5 19.29 36.6 22.12C36.35 22.47 36.22 22.77 36.22 23.07C36.22 23.33 36.35 23.58 36.56 23.84L42.83 31.75C43.18 32.22 43.35 32.78 43.35 33.25C43.35 34.67 42.02 35.49 40.73 35.62L40 35.66L33.47 35.66C33.34 35.66 33.25 35.7 33.12 35.7C32.39 35.7 31.79 35.32 31.36 34.89C29.99 33.21 28.66 31.49 27.32 29.82C27.07 29.47 26.98 29.43 26.72 29.26C26.42 30.5 26.16 31.79 25.86 33.08L25.73 33.81C25.52 34.58 24.96 35.4 23.93 35.62L23.33 35.66L19.12 35.66C11.68 35.66 5.02 25.09 0.34 11.9C0.21 11.55 0.12 11.08 0.12 10.65ZM25.95 21.78C24.83 21.78 23.58 21.14 23.58 19.93L23.58 10.05C23.58 8.89 23.07 8.46 21.65 8.46L19.2 8.55C17.83 8.55 17.05 8.76 16.41 9.19C17.4 9.66 18.3 10.31 18.3 12.11L18.3 19.67C18.17 21.18 16.92 22.17 15.72 22.17C14.91 22.17 14.17 21.69 13.75 20.92C11.81 18 10.18 15.25 8.76 11.3L8.37 10.18L2.66 10.14C1.89 10.14 1.97 10.18 1.97 10.57C1.97 10.82 2.01 11.17 2.06 11.38L2.96 13.79C7.64 25.91 13.53 33.85 19.12 33.85L23.41 33.85C24.01 33.85 23.97 33.12 24.1 32.69L24.92 28.91C25.09 28.53 25.22 28.18 25.52 27.88C25.86 27.54 26.25 27.41 26.64 27.41C27.45 27.41 28.23 28.05 28.74 28.66L32.39 33.3C32.69 33.77 32.95 33.85 33.12 33.85L40.21 33.85C40.9 33.85 41.5 33.64 41.5 33.21C41.5 33.08 41.46 32.91 41.37 32.78L35.14 25C34.63 24.36 34.41 23.71 34.41 23.07C34.41 22.38 34.67 21.69 35.1 21.09C36.91 18.39 40.77 14.52 41.67 11.34L41.8 10.78C41.76 10.57 41.76 10.39 41.72 10.18L34.97 10.18C34.54 10.35 34.2 10.61 33.94 10.95L33.68 11.77C32.69 14.52 29.99 18.3 28.05 20.92C27.41 21.52 26.68 21.78 25.95 21.78Z" fill="#CAD9E7" fill-opacity="1.000000" fill-rule="nonzero"/>
	</g>
</svg>
