<svg width="99" height="102" viewBox="0 0 99 102" fill="none" xmlns="http://www.w3.org/2000/svg">
<path d="M31.0751 18.8139C34.9778 12.3146 46.8337 10.9498 49.6098 12.8854C61.6717 21.8445 72.5399 17.4654 75.7442 32.2966C78.9485 47.1279 103.52 54.5512 81.6217 68.3317C59.7232 82.1121 58.9904 98.0791 43.2387 94.6624C27.487 91.2457 30.0754 79.3143 23.0752 71.3143C17.8523 65.3454 7.25277 52.8841 9.42102 36.0884C11.5893 19.2927 26.1969 26.9381 31.0751 18.8139Z" fill="#FFCA10"/>
<path d="M62.5156 87.0137V98H13.8828V88.625L36.8809 63.9668C39.1921 61.3952 41.015 59.1328 42.3496 57.1797C43.6842 55.194 44.6445 53.4199 45.2305 51.8574C45.849 50.2624 46.1582 48.7487 46.1582 47.3164C46.1582 45.168 45.8001 43.3288 45.084 41.7988C44.3678 40.2363 43.3099 39.0319 41.9102 38.1855C40.543 37.3392 38.8503 36.916 36.832 36.916C34.6836 36.916 32.8281 37.4368 31.2656 38.4785C29.7357 39.5202 28.5638 40.9688 27.75 42.8242C26.9688 44.6797 26.5781 46.7793 26.5781 49.123H12.4668C12.4668 44.8913 13.4759 41.0176 15.4941 37.502C17.5124 33.9538 20.3607 31.138 24.0391 29.0547C27.7174 26.9388 32.0794 25.8809 37.125 25.8809C42.1055 25.8809 46.3047 26.6947 49.7227 28.3223C53.1732 29.9173 55.7773 32.2285 57.5352 35.2559C59.3255 38.2507 60.2207 41.8314 60.2207 45.998C60.2207 48.3418 59.8464 50.6367 59.0977 52.8828C58.349 55.0964 57.2747 57.3099 55.875 59.5234C54.5078 61.7044 52.8477 63.918 50.8945 66.1641C48.9414 68.4102 46.7767 70.7376 44.4004 73.1465L32.0469 87.0137H62.5156Z" fill="#F3F6FA"/>
</svg>
