<svg width="1287.754395" height="1408.179199" viewBox="0 0 1287.75 1408.18" fill="none" xmlns="http://www.w3.org/2000/svg" xmlns:xlink="http://www.w3.org/1999/xlink">
	<desc>
			Created with Pixso.
	</desc>
	<defs/>
	<g opacity="0.200000">
		<path id="Vector 13" d="M655.94 147.05C654.65 176.57 619.59 244.29 489.69 279.01C327.32 322.42 302.5 434.25 192.74 436.56C82.98 438.87 51.17 526.05 68.04 575.82C84.92 625.6 107.62 695.65 245.27 687.75C382.92 679.85 397.77 697.12 396.46 759.41C395.16 821.71 456.56 848.07 511.84 857.51C567.12 866.94 655.46 875.73 690.2 951.8C724.93 1027.87 809.13 1123.17 855.83 1138.13C902.54 1153.07 974.08 1191.56 1187.48 1094.81C1358.19 1017.4 904.25 430.71 655.94 147.05Z" fill="#244C70" fill-opacity="1.000000" fill-rule="evenodd"/>
	</g>
	<path id="Vector 12" d="M686.05 81.5C684.76 111.01 649.7 178.73 519.8 213.46C357.42 256.86 332.61 368.69 222.85 371C113.09 373.31 81.27 460.49 98.15 510.27C115.03 560.04 137.73 630.1 275.38 622.2C413.03 614.3 427.87 631.56 426.57 693.86C425.27 756.15 486.67 782.52 541.95 791.95C597.23 801.38 685.57 810.17 720.3 886.24C755.03 962.31 839.23 1057.62 885.94 1072.56C932.65 1087.52 1004.19 1126.02 1217.57 1029.25C1388.3 951.83 934.36 365.16 686.05 81.5Z" fill="#244C70" fill-opacity="1.000000" fill-rule="evenodd"/>
</svg>
