<svg width="150.000000" height="150.000000" viewBox="0 0 150 150" fill="none" xmlns="http://www.w3.org/2000/svg" xmlns:xlink="http://www.w3.org/1999/xlink">
	<desc>
			Created with Pixso.
	</desc>
	<defs>
		<filter id="filter_7_1716_dd" x="0.000000" y="0.000000" width="150.000000" height="150.000000" filterUnits="userSpaceOnUse" color-interpolation-filters="sRGB">
			<feFlood flood-opacity="0" result="BackgroundImageFix"/>
			<feColorMatrix in="SourceAlpha" type="matrix" values="0 0 0 0 0 0 0 0 0 0 0 0 0 0 0 0 0 0 127 0" result="hardAlpha"/>
			<feOffset dx="-5" dy="5"/>
			<feGaussianBlur stdDeviation="6.66667"/>
			<feComposite in2="hardAlpha" operator="out" k2="-1" k3="1"/>
			<feColorMatrix type="matrix" values="0 0 0 0 0.15294 0 0 0 0 0.2 0 0 0 0 0.31765 0 0 0 0.059 0"/>
			<feBlend mode="normal" in2="BackgroundImageFix" result="effect_dropShadow_1"/>
			<feBlend mode="normal" in="SourceGraphic" in2="effect_dropShadow_1" result="shape"/>
		</filter>
		<clipPath id="clip7_1716">
			<rect id="Warranty" rx="20.000000" width="110.000000" height="110.000000" transform="translate(25.000000 15.000000)" fill="white" fill-opacity="0"/>
		</clipPath>
	</defs>
	<g filter="url(#filter_7_1716_dd)">
		<rect id="Warranty" rx="20.000000" width="110.000000" height="110.000000" transform="translate(25.000000 15.000000)" fill="#FFFFFF" fill-opacity="0"/>
		<g clip-path="url(#clip7_1716)">
			<circle id="Ellipse 21" cx="50.535767" cy="36.607178" r="21.607143" fill="#FFCA10" fill-opacity="1.000000"/>
			<ellipse id="Ellipse 22" cx="102.916626" cy="26.130981" rx="11.130955" ry="11.130953" fill="#FFCA10" fill-opacity="1.000000"/>
			<path id="Vector" d="M80 85.46C75.31 85.46 70.7 84.27 66.6 81.98C62.51 79.7 59.07 76.41 56.6 72.42C54.14 68.43 52.73 63.88 52.52 59.2C52.31 54.52 53.3 49.86 55.4 45.67C57.49 41.47 60.63 37.89 64.5 35.24C68.37 32.6 72.86 31 77.53 30.57C82.19 30.15 86.89 30.93 91.18 32.84C95.46 34.74 99.18 37.71 102 41.46C102.27 41.83 102.39 42.29 102.32 42.74C102.26 43.19 102.02 43.6 101.65 43.87C101.29 44.14 100.83 44.26 100.38 44.2C99.93 44.13 99.52 43.89 99.25 43.53C95.56 38.65 90.16 35.36 84.13 34.34C78.1 33.32 71.91 34.63 66.83 38.03C61.74 41.42 58.14 46.62 56.77 52.58C55.4 58.54 56.36 64.79 59.45 70.07C62.54 75.34 67.52 79.24 73.39 80.95C79.26 82.67 85.56 82.08 91 79.3C96.45 76.53 100.63 71.77 102.68 66.02C104.74 60.26 104.52 53.94 102.06 48.34C101.96 48.13 101.9 47.9 101.88 47.67C101.87 47.44 101.91 47.2 101.98 46.98C102.06 46.76 102.19 46.56 102.35 46.39C102.51 46.22 102.7 46.09 102.91 45.99C103.13 45.9 103.36 45.85 103.59 45.85C103.82 45.85 104.05 45.89 104.27 45.99C104.48 46.08 104.68 46.21 104.84 46.38C105 46.55 105.13 46.75 105.21 46.96C107.04 51.15 107.79 55.72 107.41 60.28C107.02 64.83 105.51 69.21 103.01 73.03C100.51 76.85 97.09 79.99 93.08 82.16C89.06 84.33 84.56 85.47 80 85.46ZM87.94 70.68C88.2 70.49 88.41 70.23 88.53 69.92C88.65 69.62 88.68 69.29 88.62 68.96L87.45 62.09L92.4 57.26C92.64 57.04 92.8 56.75 92.88 56.44C92.96 56.13 92.95 55.8 92.85 55.49C92.75 55.19 92.57 54.92 92.32 54.71C92.08 54.5 91.78 54.37 91.46 54.32L84.58 53.32L81.54 47.22C81.4 46.94 81.18 46.7 80.91 46.53C80.64 46.36 80.32 46.27 80 46.27C79.68 46.27 79.37 46.36 79.1 46.53C78.83 46.7 78.61 46.94 78.47 47.22L75.41 53.43L68.53 54.42C68.21 54.47 67.91 54.6 67.67 54.81C67.42 55.02 67.24 55.29 67.14 55.6C67.04 55.9 67.03 56.23 67.11 56.54C67.19 56.86 67.35 57.14 67.59 57.36L72.54 62.19L71.37 69.07C71.31 69.38 71.35 69.71 71.47 70C71.59 70.3 71.8 70.55 72.05 70.74C72.31 70.93 72.62 71.04 72.94 71.06C73.26 71.09 73.58 71.02 73.86 70.87L80 67.59L86.11 70.8C86.4 70.95 86.72 71.02 87.04 70.99C87.35 70.97 87.66 70.85 87.92 70.67L87.94 70.68ZM79.2 64.13L75.35 66.15L76.09 61.87C76.14 61.59 76.12 61.31 76.03 61.05C75.94 60.78 75.79 60.55 75.6 60.35L72.48 57.33L76.78 56.71C77.06 56.67 77.32 56.56 77.54 56.4C77.77 56.23 77.95 56.01 78.07 55.76L80 51.86L81.92 55.75C82.04 56 82.22 56.21 82.45 56.38C82.67 56.54 82.93 56.65 83.21 56.69L87.51 57.31L84.4 60.34C84.2 60.53 84.05 60.77 83.96 61.03C83.87 61.29 83.85 61.57 83.9 61.85L84.64 66.13L80.8 64.12C80.56 63.99 80.28 63.92 80 63.92C79.73 63.92 79.45 63.99 79.2 64.12L79.2 64.13ZM88.74 96.26C90.62 95.62 92.25 94.42 93.42 92.82C94.08 91.98 94.88 91.26 95.79 90.69C96.82 90.32 97.91 90.14 99 90.14C100.95 90.2 102.86 89.67 104.49 88.61C105.88 87.25 106.83 85.5 107.2 83.59C107.44 82.53 107.86 81.52 108.44 80.6C109.2 79.84 110.09 79.21 111.07 78.74C112.86 77.95 114.37 76.63 115.38 74.96C116.05 73.15 116.14 71.18 115.66 69.31C115.41 68.23 115.36 67.12 115.49 66.02C115.84 65.03 116.36 64.1 117.02 63.27C118.29 61.77 119.07 59.92 119.25 57.96C119.06 55.99 118.27 54.12 116.98 52.62C116.32 51.8 115.8 50.87 115.45 49.87C115.32 48.77 115.38 47.66 115.63 46.59C116.11 44.72 116.02 42.74 115.35 40.93C114.33 39.26 112.83 37.94 111.04 37.15C110.06 36.69 109.17 36.06 108.41 35.29C107.83 34.37 107.41 33.36 107.17 32.3C106.8 30.39 105.85 28.64 104.45 27.28C102.82 26.23 100.91 25.69 98.97 25.75C97.88 25.76 96.79 25.57 95.76 25.2C94.85 24.63 94.06 23.9 93.4 23.06C92.24 21.45 90.6 20.25 88.73 19.62C86.82 19.38 84.89 19.73 83.19 20.62C82.19 21.12 81.11 21.46 80 21.6C78.88 21.48 77.8 21.17 76.8 20.68C75.1 19.8 73.17 19.45 71.26 19.69C69.39 20.32 67.75 21.52 66.59 23.12C65.93 23.97 65.12 24.69 64.22 25.26C63.19 25.62 62.1 25.81 61 25.81C59.06 25.75 57.15 26.28 55.52 27.34C54.12 28.69 53.18 30.44 52.8 32.35C52.57 33.41 52.15 34.43 51.57 35.34C50.8 36.11 49.91 36.74 48.94 37.2C47.15 37.99 45.64 39.31 44.62 40.98C44.44 41.37 44.3 41.77 44.21 42.19C44.11 42.64 44.2 43.12 44.45 43.51C44.71 43.9 45.1 44.18 45.56 44.27C46.02 44.37 46.49 44.28 46.88 44.03C47.28 43.78 47.55 43.38 47.65 42.92C47.68 42.77 47.73 42.62 47.8 42.48C48.55 41.47 49.55 40.68 50.71 40.19C52.04 39.5 53.23 38.56 54.21 37.42C55.08 36.17 55.71 34.77 56.05 33.28C56.28 32.06 56.84 30.91 57.65 29.97C58.75 29.39 59.99 29.12 61.23 29.17C62.76 29.17 64.27 28.87 65.7 28.3C67.02 27.56 68.18 26.57 69.13 25.39C69.88 24.37 70.88 23.56 72.04 23.06C73.24 23.04 74.42 23.33 75.47 23.9C76.88 24.56 78.39 24.95 79.94 25.05C81.49 24.95 83.01 24.56 84.41 23.9C85.47 23.33 86.65 23.04 87.85 23.06C89.04 23.52 90.09 24.3 90.87 25.31C91.82 26.49 92.99 27.47 94.31 28.21C95.73 28.79 97.25 29.1 98.78 29.11C100.02 29.08 101.25 29.37 102.34 29.97C103.15 30.92 103.69 32.07 103.9 33.3C104.26 34.79 104.89 36.19 105.78 37.44C106.8 38.56 108.03 39.48 109.4 40.14C110.55 40.66 111.54 41.47 112.27 42.5C112.59 43.69 112.59 44.95 112.27 46.14C111.94 47.64 111.89 49.19 112.14 50.71C112.56 52.15 113.27 53.49 114.2 54.66C115.08 55.63 115.67 56.82 115.92 58.1C115.67 59.38 115.08 60.57 114.2 61.54C113.27 62.71 112.57 64.05 112.14 65.49C111.89 67.01 111.94 68.56 112.27 70.06C112.59 71.26 112.59 72.51 112.27 73.71C111.52 74.71 110.52 75.5 109.37 75.99C108.03 76.6 106.81 77.45 105.78 78.5C104.91 79.75 104.28 81.16 103.94 82.65C103.71 83.87 103.16 85.02 102.34 85.96C101.24 86.54 100 86.81 98.76 86.75C97.23 86.76 95.72 87.06 94.3 87.63C92.97 88.37 91.81 89.36 90.86 90.53C90.11 91.56 89.11 92.37 87.95 92.87C86.75 92.89 85.57 92.6 84.52 92.03C83.11 91.36 81.6 90.97 80.05 90.88C78.5 90.97 76.98 91.36 75.58 92.03C74.52 92.6 73.34 92.89 72.14 92.87C70.95 92.41 69.9 91.63 69.12 90.62C68.17 89.44 67 88.46 65.68 87.72C64.26 87.14 62.74 86.83 61.21 86.82C59.97 86.85 58.74 86.56 57.65 85.96C56.85 85.01 56.31 83.86 56.09 82.63C55.73 81.14 55.1 79.73 54.21 78.49C53.19 77.36 51.96 76.45 50.59 75.79C49.44 75.27 48.45 74.46 47.72 73.43C47.4 72.24 47.4 70.98 47.72 69.79C48.05 68.29 48.1 66.74 47.85 65.22C47.43 63.78 46.73 62.44 45.79 61.26C44.91 60.3 44.32 59.11 44.07 57.83C44.32 56.54 44.92 55.36 45.79 54.39L46.36 53.56C47.04 52.62 47.55 51.56 47.85 50.44C48.04 49.38 48.04 48.31 47.85 47.26C47.83 47.03 47.76 46.81 47.64 46.61C47.53 46.42 47.38 46.24 47.21 46.1C47.03 45.96 46.82 45.86 46.6 45.8C46.38 45.73 46.16 45.72 45.93 45.74C45.7 45.77 45.49 45.84 45.29 45.95C45.09 46.06 44.91 46.21 44.77 46.39C44.63 46.57 44.53 46.78 44.47 47C44.41 47.21 44.39 47.44 44.42 47.67C44.53 48.33 44.53 49.01 44.42 49.68C44.2 50.39 43.86 51.07 43.42 51.67L42.89 52.45C41.61 54.01 40.86 55.94 40.74 57.96C40.93 59.94 41.72 61.8 43.01 63.31C43.67 64.13 44.19 65.06 44.54 66.06C44.67 67.16 44.61 68.27 44.37 69.34C43.88 71.21 43.98 73.18 44.64 75C45.66 76.67 47.16 77.99 48.95 78.78C49.93 79.24 50.82 79.87 51.58 80.63C52.16 81.55 52.58 82.56 52.82 83.62C53.2 85.53 54.14 87.29 55.54 88.64C57.17 89.7 59.08 90.23 61.02 90.17C62.12 90.17 63.2 90.36 64.23 90.72C65.14 91.29 65.94 92.01 66.61 92.85C67.77 94.46 69.41 95.66 71.28 96.29C73.18 96.53 75.11 96.18 76.82 95.3C77.81 94.79 78.89 94.47 80 94.33C81.11 94.45 82.19 94.76 83.19 95.24C84.56 95.89 86.03 96.28 87.54 96.38C87.94 96.38 88.34 96.33 88.73 96.24L88.74 96.26ZM52.5 78.76L48.85 118.88L71.83 95.88C72.11 95.55 72.26 95.13 72.24 94.7C72.23 94.26 72.05 93.85 71.74 93.55C71.43 93.24 71.02 93.06 70.59 93.04C70.16 93.03 69.74 93.17 69.41 93.46L48.78 114.08L46.91 102.79C46.85 102.44 46.68 102.11 46.43 101.86C46.18 101.61 45.85 101.44 45.5 101.38L34.19 99.49L53.32 80.31C53.6 79.98 53.75 79.56 53.73 79.12C53.72 78.69 53.54 78.28 53.23 77.97C52.92 77.67 52.51 77.49 52.08 77.47C51.65 77.46 51.23 77.6 50.9 77.88L29.4 99.42C29.17 99.64 29.02 99.92 28.94 100.23C28.87 100.53 28.88 100.85 28.98 101.15C29.07 101.45 29.25 101.72 29.49 101.93C29.72 102.13 30.01 102.27 30.32 102.33L43.7 104.56L45.93 117.93C45.98 118.24 46.12 118.53 46.33 118.77C46.53 119.01 46.8 119.18 47.1 119.28C47.4 119.37 47.72 119.38 48.03 119.31C48.33 119.24 48.61 119.08 48.83 118.86L52.5 78.76ZM118.86 90.12C119.18 89.8 119.36 89.36 119.36 88.91C119.36 88.46 119.18 88.02 118.86 87.7L109.21 78.09C108.89 77.81 108.46 77.66 108.03 77.68C107.6 77.69 107.19 77.87 106.88 78.18C106.57 78.49 106.4 78.9 106.38 79.33C106.36 79.76 106.51 80.18 106.79 80.51L116.38 90.1C116.7 90.42 117.14 90.6 117.59 90.6C118.05 90.6 118.48 90.42 118.8 90.1L118.86 90.12ZM112.89 119.34C113.19 119.24 113.46 119.07 113.67 118.83C113.87 118.59 114.01 118.29 114.06 117.98L116.3 104.61L129.67 102.38C129.98 102.32 130.27 102.19 130.5 101.98C130.74 101.77 130.92 101.51 131.01 101.21C131.11 100.91 131.12 100.59 131.05 100.28C130.97 99.97 130.82 99.69 130.6 99.47L125.71 94.56C125.39 94.27 124.96 94.13 124.53 94.14C124.1 94.16 123.69 94.34 123.38 94.65C123.07 94.95 122.9 95.36 122.88 95.8C122.86 96.23 123.01 96.65 123.29 96.98L125.8 99.49L114.51 101.36C114.16 101.42 113.83 101.59 113.58 101.84C113.33 102.09 113.16 102.42 113.1 102.77L111.23 114.06L91.53 94.38C91.2 94.1 90.78 93.96 90.34 93.97C89.91 93.99 89.5 94.17 89.19 94.47C88.89 94.78 88.71 95.19 88.69 95.62C88.68 96.06 88.82 96.48 89.1 96.81L111.14 118.88C111.36 119.1 111.64 119.25 111.94 119.33C112.24 119.41 112.56 119.4 112.86 119.31L112.89 119.34ZM121.25 90.62C120.91 90.62 120.57 90.72 120.29 90.91C120.01 91.1 119.79 91.37 119.66 91.68C119.53 92 119.49 92.34 119.56 92.67C119.63 93.01 119.79 93.31 120.03 93.55C120.27 93.79 120.58 93.96 120.91 94.02C121.24 94.09 121.59 94.06 121.9 93.93C122.22 93.8 122.49 93.58 122.67 93.29C122.86 93.01 122.96 92.68 122.96 92.34C122.96 91.88 122.78 91.45 122.46 91.12C122.14 90.8 121.7 90.62 121.25 90.62Z" fill="#F3F6FA" fill-opacity="1.000000" fill-rule="nonzero"/>
		</g>
	</g>
</svg>
