<svg width="150.000000" height="150.000000" viewBox="0 0 150 150" fill="none" xmlns="http://www.w3.org/2000/svg" xmlns:xlink="http://www.w3.org/1999/xlink">
	<desc>
			Created with Pixso.
	</desc>
	<defs>
		<filter id="filter_408_1223_dd" x="0.000000" y="0.000000" width="150.000000" height="150.000000" filterUnits="userSpaceOnUse" color-interpolation-filters="sRGB">
			<feFlood flood-opacity="0" result="BackgroundImageFix"/>
			<feColorMatrix in="SourceAlpha" type="matrix" values="0 0 0 0 0 0 0 0 0 0 0 0 0 0 0 0 0 0 127 0" result="hardAlpha"/>
			<feOffset dx="-5" dy="5"/>
			<feGaussianBlur stdDeviation="6.66667"/>
			<feComposite in2="hardAlpha" operator="out" k2="-1" k3="1"/>
			<feColorMatrix type="matrix" values="0 0 0 0 0.15294 0 0 0 0 0.2 0 0 0 0 0.31765 0 0 0 0.059 0"/>
			<feBlend mode="normal" in2="BackgroundImageFix" result="effect_dropShadow_1"/>
			<feBlend mode="normal" in="SourceGraphic" in2="effect_dropShadow_1" result="shape"/>
		</filter>
		<clipPath id="clip408_1223">
			<rect id="Cash" rx="20.000000" width="110.000000" height="110.000000" transform="translate(25.000000 15.000000)" fill="white" fill-opacity="0"/>
		</clipPath>
	</defs>
	<g filter="url(#filter_408_1223_dd)">
		<rect id="Cash" rx="20.000000" width="110.000000" height="110.000000" transform="translate(25.000000 15.000000)" fill="#FFFFFF" fill-opacity="0"/>
		<g clip-path="url(#clip408_1223)">
			<ellipse id="Ellipse 21" cx="103.571411" cy="45.119019" rx="27.499998" ry="27.500000" fill="#FFCA10" fill-opacity="1.000000"/>
			<circle id="Ellipse 22" cx="52.500000" cy="96.190430" r="14.404762" fill="#FFCA10" fill-opacity="1.000000"/>
			<path id="Vector" d="M113.12 57.26L115.31 48.03C115.48 47.3 115.45 46.53 115.22 45.82C114.98 45.1 114.56 44.46 113.99 43.97L106.8 37.79L103.13 29.04C102.85 28.35 102.37 27.75 101.76 27.3C101.15 26.86 100.43 26.6 99.68 26.53L90.23 25.75L82.13 20.83C81.48 20.44 80.75 20.23 80 20.23C79.24 20.23 78.51 20.44 77.86 20.83L69.76 25.75L60.31 26.53C59.56 26.6 58.84 26.86 58.23 27.3C57.62 27.75 57.14 28.35 56.86 29.04L53.2 37.79L46.01 43.97C45.43 44.46 45.01 45.1 44.77 45.82C44.54 46.53 44.51 47.3 44.69 48.03L46.87 57.26L44.69 66.49C44.51 67.22 44.54 67.99 44.77 68.7C45.01 69.42 45.43 70.06 46 70.55L53.19 76.73L56.86 85.48C57.14 86.17 57.62 86.77 58.23 87.22C58.84 87.66 59.56 87.93 60.31 87.99L64.1 88.3L64.1 115.84C64.1 117.18 64.77 118.41 65.9 119.13C66.53 119.54 67.26 119.76 68.01 119.76C68.57 119.76 69.12 119.64 69.64 119.4L80 114.67L90.35 119.4C90.94 119.67 91.6 119.79 92.25 119.75C92.91 119.7 93.54 119.49 94.09 119.13C94.65 118.78 95.1 118.29 95.41 117.72C95.73 117.14 95.89 116.49 95.89 115.84L95.89 110.62C95.89 109.55 95.02 108.68 93.94 108.68C92.87 108.68 92 109.55 92 110.62L92 115.85C91.99 115.85 91.98 115.86 91.97 115.86L80.8 110.76C80.55 110.64 80.27 110.58 80 110.58C79.72 110.58 79.44 110.64 79.19 110.76L68.02 115.86C68.01 115.86 68.01 115.86 68 115.85C68 115.85 67.99 115.84 67.99 115.84L67.99 88.62L69.76 88.77L77.86 93.69C78.51 94.08 79.24 94.29 80 94.29C80.73 94.29 81.47 94.09 82.13 93.69L90.23 88.77L92 88.62L92 93.16C92 94.24 92.87 95.11 93.94 95.11C95.02 95.11 95.89 94.24 95.89 93.16L95.89 88.3L99.68 87.99C100.43 87.93 101.15 87.66 101.76 87.22C102.37 86.77 102.85 86.17 103.13 85.48L106.8 76.73L113.99 70.55C114.56 70.06 114.98 69.42 115.22 68.7C115.45 67.99 115.48 67.22 115.31 66.49L113.12 57.26ZM109.22 57.71L111.52 67.39C111.53 67.46 111.51 67.54 111.45 67.6L103.91 74.08C103.68 74.27 103.5 74.52 103.38 74.8L99.54 83.97C99.51 84.05 99.44 84.1 99.36 84.1L89.45 84.93C89.15 84.95 88.86 85.05 88.6 85.2L80.11 90.36C80.07 90.38 80.03 90.39 79.99 90.39C79.96 90.39 79.92 90.38 79.88 90.36L71.38 85.2C71.13 85.05 70.84 84.95 70.54 84.93L60.63 84.1C60.59 84.1 60.55 84.09 60.52 84.06C60.49 84.04 60.46 84.01 60.45 83.97L56.61 74.8C56.49 74.52 56.31 74.27 56.08 74.08L48.54 67.6C48.51 67.57 48.49 67.54 48.48 67.5C48.47 67.46 48.47 67.42 48.48 67.38L50.77 57.71C50.84 57.41 50.84 57.11 50.77 56.81L48.48 47.14C48.46 47.06 48.48 46.98 48.54 46.92L56.08 40.45C56.31 40.25 56.49 40 56.61 39.72L60.45 30.55C60.48 30.47 60.55 30.42 60.63 30.42L70.54 29.59C70.84 29.57 71.13 29.48 71.39 29.32L79.88 24.16C79.92 24.14 79.96 24.13 80 24.13C80.03 24.13 80.07 24.14 80.11 24.16L88.61 29.32C88.86 29.48 89.15 29.57 89.45 29.59L99.36 30.42C99.4 30.42 99.44 30.43 99.47 30.46C99.5 30.48 99.53 30.51 99.54 30.55L103.38 39.72C103.5 40 103.68 40.25 103.91 40.45L111.45 46.92C111.51 46.98 111.53 47.06 111.52 47.14L109.22 56.81C109.15 57.11 109.15 57.41 109.22 57.71Z" fill="#F3F6FA" fill-opacity="1.000000" fill-rule="nonzero"/>
			<path id="Vector" d="M80 32.19C66.17 32.19 54.92 43.44 54.92 57.26C54.92 71.09 66.17 82.33 80 82.33C93.82 82.33 105.07 71.08 105.07 57.26C105.07 43.44 93.82 32.19 80 32.19ZM80 78.44C68.32 78.44 58.82 68.94 58.82 57.26C58.82 45.58 68.32 36.08 80 36.08C91.67 36.08 101.17 45.58 101.17 57.26C101.17 68.94 91.67 78.44 80 78.44Z" fill="#F3F6FA" fill-opacity="1.000000" fill-rule="nonzero"/>
			<path id="Vector" d="M82.95 55.3C80.85 54.55 78.52 53.65 77.19 52.61C76.68 52.21 76.46 51.37 76.63 50.47C76.8 49.58 77.4 48.51 78.58 48.15C81.4 47.31 84.57 49.78 84.64 49.83C85.47 50.5 86.69 50.37 87.37 49.54C88.05 48.7 87.92 47.47 87.08 46.8C86.95 46.69 84.73 44.93 81.8 44.31L81.8 42.95C81.8 41.88 80.93 41.01 79.85 41.01C78.78 41.01 77.91 41.88 77.91 42.95L77.91 44.3C77.76 44.34 77.61 44.38 77.46 44.43C75.07 45.14 73.29 47.18 72.8 49.75C72.36 52.1 73.12 54.37 74.79 55.68C76.21 56.8 78.2 57.75 81.65 58.97C84.29 59.9 84.13 62.15 84.02 62.82C83.73 64.52 82.3 66.35 79.84 66.37C77.58 66.38 76.81 66.26 75.04 65.1C74.14 64.51 72.93 64.77 72.34 65.67C71.75 66.57 72.01 67.77 72.91 68.36C74.86 69.64 76.23 70.08 77.91 70.21L77.91 71.57C77.91 72.64 78.78 73.51 79.85 73.51C80.93 73.51 81.8 72.64 81.8 71.57L81.8 70.03C85.2 69.2 87.38 66.31 87.86 63.46C88.48 59.78 86.55 56.57 82.95 55.3Z" fill="#F3F6FA" fill-opacity="1.000000" fill-rule="nonzero"/>
			<path id="Vector" d="M95.84 101.58C96.02 102.64 95.3 103.64 94.24 103.82C93.18 103.99 92.18 103.27 92.01 102.21C91.83 101.15 92.55 100.15 93.61 99.98C94.67 99.81 95.67 100.53 95.84 101.58Z" fill="#F3F6FA" fill-opacity="1.000000" fill-rule="evenodd"/>
		</g>
	</g>
</svg>
