<svg width="150.000000" height="150.000000" viewBox="0 0 150 150" fill="none" xmlns="http://www.w3.org/2000/svg" xmlns:xlink="http://www.w3.org/1999/xlink">
	<desc>
			Created with Pixso.
	</desc>
	<defs>
		<filter id="filter_7_1707_dd" x="0.000000" y="0.000000" width="150.000000" height="150.000000" filterUnits="userSpaceOnUse" color-interpolation-filters="sRGB">
			<feFlood flood-opacity="0" result="BackgroundImageFix"/>
			<feColorMatrix in="SourceAlpha" type="matrix" values="0 0 0 0 0 0 0 0 0 0 0 0 0 0 0 0 0 0 127 0" result="hardAlpha"/>
			<feOffset dx="-5" dy="5"/>
			<feGaussianBlur stdDeviation="6.66667"/>
			<feComposite in2="hardAlpha" operator="out" k2="-1" k3="1"/>
			<feColorMatrix type="matrix" values="0 0 0 0 0.15294 0 0 0 0 0.2 0 0 0 0 0.31765 0 0 0 0.059 0"/>
			<feBlend mode="normal" in2="BackgroundImageFix" result="effect_dropShadow_1"/>
			<feBlend mode="normal" in="SourceGraphic" in2="effect_dropShadow_1" result="shape"/>
		</filter>
		<clipPath id="clip7_1707">
			<rect id="Delivery" rx="20.000000" width="110.000000" height="110.000000" transform="translate(25.000000 15.000000)" fill="white" fill-opacity="0"/>
		</clipPath>
	</defs>
	<g filter="url(#filter_7_1707_dd)">
		<rect id="Delivery" rx="20.000000" width="110.000000" height="110.000000" transform="translate(25.000000 15.000000)" fill="#FFFFFF" fill-opacity="0"/>
		<g clip-path="url(#clip7_1707)">
			<circle id="Ellipse 21" cx="112.738159" cy="100.119019" r="18.333332" fill="#FFCA10" fill-opacity="1.000000"/>
			<circle id="Ellipse 22" cx="62.976196" cy="37.261963" r="10.476191" fill="#FFCA10" fill-opacity="1.000000"/>
			<path id="Vector" d="M130.78 58.51L122.1 42.86C121.64 42.03 120.96 41.33 120.14 40.85C119.31 40.36 118.37 40.1 117.42 40.1L97.03 40.1L97.03 35.93C97.03 34.03 95.49 32.49 93.6 32.49L37.85 32.49C37.02 32.49 36.34 33.17 36.34 34C36.34 34.83 37.02 35.5 37.85 35.5L93.6 35.5C93.83 35.5 94.02 35.69 94.02 35.93L94.02 81.9L37.85 81.9C37.02 81.9 36.34 82.58 36.34 83.41L36.34 92.77C36.34 94.66 37.88 96.2 39.78 96.2L42.68 96.2C43.43 102.55 48.85 107.5 55.39 107.5C61.94 107.5 67.36 102.55 68.1 96.2L94.11 96.2C94.86 102.55 100.27 107.5 106.82 107.5C113.37 107.5 118.78 102.55 119.53 96.2L131.16 96.2C133.05 96.2 134.59 94.66 134.59 92.77L134.59 73.26C134.59 68.11 133.27 63.01 130.78 58.51ZM39.35 92.77L39.35 84.91L47.16 84.91C44.73 86.95 43.07 89.88 42.68 93.2L39.78 93.2C39.54 93.2 39.35 93 39.35 92.77ZM55.39 104.49C50 104.49 45.6 100.1 45.6 94.7C45.6 89.3 50 84.91 55.39 84.91C60.79 84.91 65.18 89.3 65.18 94.7C65.18 100.1 60.79 104.49 55.39 104.49ZM94.02 93.2L68.1 93.2C67.72 89.88 66.06 86.95 63.63 84.91L94.02 84.91L94.02 93.2ZM106.82 104.49C101.42 104.49 97.03 100.1 97.03 94.7C97.03 89.3 101.42 84.91 106.82 84.91C112.22 84.91 116.61 89.3 116.61 94.7C116.61 100.1 112.22 104.49 106.82 104.49ZM131.58 86.21C129.96 85.59 128.81 84.03 128.81 82.2L128.81 77.6C128.81 77.37 129 77.18 129.23 77.18L131.58 77.18L131.58 86.21ZM131.58 74.17L129.23 74.17C127.34 74.17 125.8 75.71 125.8 77.6L125.8 82.2C125.8 85.7 128.29 88.63 131.58 89.33L131.58 92.77C131.58 93 131.39 93.2 131.16 93.2L119.53 93.2C118.78 86.85 113.37 81.9 106.82 81.9C102.9 81.9 99.38 83.68 97.03 86.47L97.03 43.11L117.42 43.11C118.27 43.11 119.06 43.58 119.47 44.32L128.14 59.96C130.4 64.03 131.58 68.61 131.58 73.26L131.58 74.17ZM106.82 99.57C104.14 99.57 101.95 97.39 101.95 94.7C101.95 92.01 104.14 89.83 106.82 89.83C109.51 89.83 111.69 92.01 111.69 94.7C111.69 97.39 109.51 99.57 106.82 99.57ZM106.82 92.84C105.79 92.84 104.96 93.67 104.96 94.7C104.96 95.73 105.79 96.56 106.82 96.56C107.85 96.56 108.69 95.73 108.69 94.7C108.69 93.67 107.85 92.84 106.82 92.84ZM55.39 99.57C52.71 99.57 50.52 97.39 50.52 94.7C50.52 92.01 52.71 89.83 55.39 89.83C58.08 89.83 60.27 92.01 60.27 94.7C60.27 97.39 58.08 99.57 55.39 99.57ZM55.39 92.84C54.37 92.84 53.53 93.67 53.53 94.7C53.53 95.73 54.37 96.56 55.39 96.56C56.42 96.56 57.26 95.73 57.26 94.7C57.26 93.67 56.42 92.84 55.39 92.84ZM124.93 68.91C124.68 68.91 124.42 68.88 124.16 68.82L101.51 63.64C99.94 63.28 98.84 61.91 98.84 60.3L98.84 48.36C98.84 46.46 100.38 44.92 102.28 44.92L115.71 44.92C116.33 44.92 116.93 45.09 117.45 45.4C117.98 45.71 118.42 46.16 118.71 46.69L126.56 60.84C127.18 61.95 127.71 63.1 128.15 64.29C128.36 64.87 128.42 65.49 128.31 66.1C128.2 66.7 127.92 67.27 127.52 67.73C127.19 68.1 126.8 68.4 126.35 68.6C125.9 68.8 125.42 68.91 124.93 68.91ZM102.28 47.93C102.16 47.93 102.06 47.98 101.98 48.06C101.9 48.13 101.85 48.24 101.85 48.36L101.85 60.3C101.85 60.5 101.99 60.67 102.18 60.71L124.83 65.89C125.05 65.94 125.19 65.82 125.25 65.75C125.33 65.67 125.4 65.53 125.33 65.34C124.94 64.3 124.47 63.28 123.93 62.3L116.08 48.15C116.05 48.08 115.99 48.03 115.93 47.99C115.86 47.95 115.79 47.93 115.71 47.93L102.28 47.93ZM69.44 39.79C59.01 39.79 50.52 48.27 50.52 58.7C50.52 69.13 59.01 77.62 69.44 77.62C79.87 77.62 88.35 69.13 88.35 58.7C88.35 48.27 79.87 39.79 69.44 39.79ZM69.44 74.61C60.67 74.61 53.53 67.47 53.53 58.7C53.53 49.93 60.67 42.79 69.44 42.79C78.21 42.79 85.35 49.93 85.35 58.7C85.35 67.47 78.21 74.61 69.44 74.61ZM77.89 63.58C77.57 64.13 76.99 64.44 76.4 64.44C76.11 64.44 75.81 64.37 75.54 64.21L68.58 60.19C68.07 59.89 67.72 59.34 67.72 58.7L67.72 49.75C67.72 48.8 68.49 48.03 69.44 48.03C70.39 48.03 71.16 48.8 71.16 49.75L71.16 57.71L77.26 61.23C77.65 61.46 77.94 61.84 78.06 62.28C78.18 62.72 78.11 63.19 77.89 63.58ZM42.84 42.79L26.9 42.79C26.5 42.79 26.12 42.64 25.84 42.35C25.56 42.07 25.4 41.69 25.4 41.29C25.4 40.89 25.56 40.51 25.84 40.23C26.12 39.95 26.5 39.79 26.9 39.79L42.84 39.79C43.24 39.79 43.62 39.95 43.9 40.23C44.18 40.51 44.34 40.89 44.34 41.29C44.34 41.69 44.18 42.07 43.9 42.35C43.62 42.64 43.24 42.79 42.84 42.79ZM42.84 54.4L26.9 54.4C26.5 54.4 26.12 54.24 25.84 53.96C25.56 53.68 25.4 53.3 25.4 52.9C25.4 52.5 25.56 52.12 25.84 51.83C26.12 51.55 26.5 51.39 26.9 51.39L42.84 51.39C43.24 51.39 43.62 51.55 43.9 51.83C44.18 52.12 44.34 52.5 44.34 52.9C44.34 53.3 44.18 53.68 43.9 53.96C43.62 54.24 43.24 54.4 42.84 54.4ZM42.84 66.01L26.9 66.01C26.5 66.01 26.12 65.85 25.84 65.57C25.56 65.29 25.4 64.9 25.4 64.51C25.4 64.11 25.56 63.72 25.84 63.44C26.12 63.16 26.5 63 26.9 63L42.84 63C43.24 63 43.62 63.16 43.9 63.44C44.18 63.72 44.34 64.11 44.34 64.51C44.34 64.9 44.18 65.29 43.9 65.57C43.62 65.85 43.24 66.01 42.84 66.01ZM42.84 77.62L26.9 77.62C26.5 77.62 26.12 77.46 25.84 77.18C25.56 76.89 25.4 76.51 25.4 76.11C25.4 75.71 25.56 75.33 25.84 75.05C26.12 74.77 26.5 74.61 26.9 74.61L42.84 74.61C43.24 74.61 43.62 74.77 43.9 75.05C44.18 75.33 44.34 75.71 44.34 76.11C44.34 76.51 44.18 76.89 43.9 77.18C43.62 77.46 43.24 77.62 42.84 77.62Z" fill="#F3F6FA" fill-opacity="1.000000" fill-rule="evenodd"/>
		</g>
	</g>
</svg>
