<svg width="39" height="114" viewBox="0 0 39 114" fill="none" xmlns="http://www.w3.org/2000/svg">
<path d="M34.7051 46.8032L32.7733 47.3208L34.7051 46.8032ZM2.15722 108.172C1.10134 107.847 0.508274 106.728 0.832585 105.673L6.11751 88.4659C6.44182 87.41 7.56069 86.8169 8.61658 87.1412C9.67247 87.4655 10.2655 88.5844 9.94122 89.6403L5.2435 104.935L20.5383 109.633C21.5942 109.957 22.1873 111.076 21.863 112.132C21.5387 113.188 20.4198 113.781 19.3639 113.457L2.15722 108.172ZM5.45769 0.350035C7.48483 1.72044 9.38113 3.1416 11.1557 4.60133L8.61454 7.69046C6.93622 6.30986 5.14029 4.96373 3.21746 3.66385L5.45769 0.350035ZM21.2009 14.6718C24.4247 18.6198 26.9966 22.6312 29.0678 26.5061L25.5401 28.3917C23.5771 24.7192 21.1454 20.928 18.1026 17.2018L21.2009 14.6718ZM34.6293 39.539C35.4639 42.0412 36.1109 44.3222 36.637 46.2855L32.7733 47.3208C32.259 45.4017 31.635 43.2039 30.8348 40.8046L34.6293 39.539ZM36.637 46.2855C37.2179 48.4536 37.8789 51.7188 38.0934 55.7222L34.0992 55.9362C33.9016 52.2492 33.2931 49.2608 32.7733 47.3208L36.637 46.2855ZM35.4321 74.5085C33.5587 79.8428 30.5468 85.421 25.8861 90.8759L22.845 88.2776C27.1756 83.2089 29.9435 78.0651 31.658 73.1831L35.4321 74.5085ZM11.7388 103.234C9.27459 104.881 6.59441 106.483 3.6811 108.027L1.80777 104.493C4.60691 103.009 7.17008 101.477 9.51629 99.9087L11.7388 103.234Z" fill="url(#paint0_linear_408_1129)"/>
<defs>
<linearGradient id="paint0_linear_408_1129" x1="4.56512" y1="-16.8343" x2="-56.583" y2="63.7877" gradientUnits="userSpaceOnUse">
<stop stop-color="#85C6FE"/>
<stop offset="1" stop-color="#2E7FC6"/>
</linearGradient>
</defs>
</svg>
