<svg width="44.000000" height="44.000000" viewBox="0 0 44 44" fill="none" xmlns="http://www.w3.org/2000/svg" xmlns:xlink="http://www.w3.org/1999/xlink">
	<desc>
			Created with Pixso.
	</desc>
	<defs>
		<clipPath id="clip408_1104">
			<rect id="ph:telegram-logo-light" width="44.000000" height="44.000000" fill="white" fill-opacity="0"/>
		</clipPath>
	</defs>
	<rect id="ph:telegram-logo-light" width="44.000000" height="44.000000" fill="#FFFFFF" fill-opacity="0"/>
	<g clip-path="url(#clip408_1104)">
		<path id="Vector" d="M39.6 5.28C39.44 5.14 39.25 5.05 39.04 5.01C38.84 4.98 38.63 5 38.43 5.08L5.27 18.43C4.86 18.59 4.52 18.88 4.29 19.26C4.07 19.64 3.96 20.09 4 20.53C4.04 20.97 4.22 21.39 4.51 21.72C4.8 22.05 5.19 22.28 5.61 22.37L14.47 24.16L14.47 34.29C14.47 34.76 14.6 35.22 14.86 35.61C15.12 36 15.48 36.3 15.9 36.47C16.32 36.65 16.79 36.69 17.24 36.59C17.68 36.49 18.09 36.26 18.41 35.92L22.77 31.27L29.57 37.41C29.99 37.79 30.52 37.99 31.08 38C31.32 37.99 31.56 37.96 31.79 37.88C32.17 37.76 32.51 37.53 32.78 37.23C33.04 36.93 33.23 36.56 33.32 36.17L39.97 6.44C40.01 6.23 40 6.01 39.94 5.81C39.87 5.6 39.76 5.42 39.6 5.28ZM5.97 20.38C5.96 20.36 5.96 20.34 5.97 20.32C5.97 20.32 5.98 20.31 5.99 20.31L32.13 9.79L15.22 22.24L5.99 20.38L5.97 20.38ZM16.99 34.52C16.95 34.57 16.89 34.6 16.83 34.61C16.76 34.63 16.7 34.62 16.64 34.6C16.58 34.57 16.52 34.53 16.49 34.48C16.45 34.42 16.43 34.35 16.43 34.29L16.43 25.55L21.29 29.93L16.99 34.52ZM31.41 35.71C31.39 35.77 31.37 35.82 31.33 35.86C31.29 35.91 31.24 35.94 31.19 35.95C31.13 35.97 31.07 35.98 31.01 35.97C30.96 35.95 30.9 35.93 30.86 35.89L17.03 23.4L37.54 8.28L31.41 35.71Z" fill="#CAD9E7" fill-opacity="1.000000" fill-rule="nonzero"/>
	</g>
</svg>
