<svg width="44.000000" height="44.000000" viewBox="0 0 44 44" fill="none" xmlns="http://www.w3.org/2000/svg" xmlns:xlink="http://www.w3.org/1999/xlink">
	<desc>
			Created with Pixso.
	</desc>
	<defs>
		<clipPath id="clip408_1102">
			<rect id="iconoir:twitter" width="44.000000" height="44.000000" fill="white" fill-opacity="0"/>
		</clipPath>
	</defs>
	<rect id="iconoir:twitter" width="44.000000" height="44.000000" fill="#FFFFFF" fill-opacity="0"/>
	<g clip-path="url(#clip408_1102)">
		<path id="Vector" d="M34.44 10.18C33.49 9.09 32.22 8.31 30.81 7.96C29.4 7.6 27.92 7.69 26.56 8.21C25.2 8.73 24.04 9.65 23.22 10.85C22.4 12.06 21.98 13.48 22 14.93L22 16.52C19.21 16.59 16.46 15.97 13.97 14.72C11.48 13.47 9.34 11.62 7.75 9.34C7.75 9.34 1.41 23.59 15.66 29.93C12.4 32.14 8.52 33.25 4.58 33.09C18.83 41.01 36.25 33.09 36.25 14.89C36.25 14.45 36.2 14.01 36.12 13.57C37.73 11.98 39.41 7.76 39.41 7.76C39.41 7.76 36.22 9.65 34.44 10.18Z" stroke="#CAD9E7" stroke-opacity="1.000000" stroke-width="2.000000" stroke-linejoin="round"/>
	</g>
</svg>
