<svg width="99" height="102" viewBox="0 0 99 102" fill="none" xmlns="http://www.w3.org/2000/svg">
<path d="M31.0751 18.8139C34.9778 12.3146 46.8337 10.9498 49.6098 12.8854C61.6717 21.8445 72.5399 17.4654 75.7442 32.2966C78.9485 47.1279 103.52 54.5512 81.6217 68.3317C59.7232 82.1121 58.9904 98.0791 43.2387 94.6624C27.487 91.2457 30.0754 79.3143 23.0752 71.3143C17.8523 65.3454 7.25277 52.8841 9.42102 36.0884C11.5893 19.2927 26.1969 26.9381 31.0751 18.8139Z" fill="#2E7FC6"/>
<path d="M28.2871 56.3496H35.8066C38.2155 56.3496 40.2012 55.9427 41.7637 55.1289C43.3262 54.2826 44.4818 53.1107 45.2305 51.6133C46.0117 50.0833 46.4023 48.3092 46.4023 46.291C46.4023 44.4681 46.0443 42.8568 45.3281 41.457C44.6445 40.0247 43.5866 38.918 42.1543 38.1367C40.722 37.3229 38.9154 36.916 36.7344 36.916C35.0091 36.916 33.4141 37.2578 31.9492 37.9414C30.4844 38.625 29.3125 39.5853 28.4336 40.8223C27.5547 42.0592 27.1152 43.5566 27.1152 45.3145H13.0039C13.0039 41.4082 14.0456 38.0065 16.1289 35.1094C18.2448 32.2122 21.0768 29.9499 24.625 28.3223C28.1732 26.6947 32.0794 25.8809 36.3438 25.8809C41.1615 25.8809 45.377 26.6621 48.9902 28.2246C52.6035 29.7546 55.4193 32.0169 57.4375 35.0117C59.4557 38.0065 60.4648 41.7174 60.4648 46.1445C60.4648 48.3906 59.944 50.5716 58.9023 52.6875C57.8607 54.7708 56.3633 56.6589 54.4102 58.3516C52.4896 60.0117 50.1458 61.3464 47.3789 62.3555C44.612 63.332 41.5033 63.8203 38.0527 63.8203H28.2871V56.3496ZM28.2871 67.043V59.7676H38.0527C41.9264 59.7676 45.3281 60.207 48.2578 61.0859C51.1875 61.9648 53.6452 63.2344 55.6309 64.8945C57.6165 66.5221 59.1139 68.459 60.123 70.7051C61.1322 72.9186 61.6367 75.3763 61.6367 78.0781C61.6367 81.3984 61.002 84.3607 59.7324 86.9648C58.4629 89.5365 56.6725 91.7174 54.3613 93.5078C52.0827 95.2982 49.4134 96.6654 46.3535 97.6094C43.2936 98.5208 39.957 98.9766 36.3438 98.9766C33.349 98.9766 30.403 98.5697 27.5059 97.7559C24.6413 96.9095 22.0371 95.6562 19.6934 93.9961C17.3822 92.3034 15.5267 90.1875 14.127 87.6484C12.7598 85.0768 12.0762 82.0332 12.0762 78.5176H26.1875C26.1875 80.3405 26.6432 81.9681 27.5547 83.4004C28.4661 84.8327 29.7194 85.9557 31.3145 86.7695C32.9421 87.5833 34.7487 87.9902 36.7344 87.9902C38.9805 87.9902 40.901 87.5833 42.4961 86.7695C44.1237 85.9232 45.3607 84.7513 46.207 83.2539C47.0859 81.724 47.5254 79.9499 47.5254 77.9316C47.5254 75.3275 47.0534 73.2441 46.1094 71.6816C45.1654 70.0866 43.8145 68.9147 42.0566 68.166C40.2988 67.4173 38.2155 67.043 35.8066 67.043H28.2871Z" fill="#F3F6FA"/>
</svg>
